<?xml version="1.0" standalone="no"?>
<!DOCTYPE svg PUBLIC "-//W3C//DTD SVG 20010904//EN"
 "http://www.w3.org/TR/2001/REC-SVG-20010904/DTD/svg10.dtd">
<svg version="1.0" xmlns="http://www.w3.org/2000/svg"
 width="1000.000000pt" height="1000.000000pt" viewBox="0 0 1000.000000 1000.000000"
 preserveAspectRatio="xMidYMid meet">

<g transform="translate(0.000000,1000.000000) scale(0.100000,-0.100000)"
fill="#000000" stroke="none">
<path d="M4855 7513 c28 -67 112 -297 118 -323 6 -24 2 -26 -71 -48 -111 -34
-479 -173 -645 -244 -612 -261 -1188 -593 -1616 -930 l-74 -58 142 0 c161 0
199 -10 230 -61 l20 -32 12 27 c7 14 29 36 48 48 20 12 92 68 161 123 463 376
1031 713 1655 983 134 59 161 67 169 55 4 -9 6 -57 4 -107 -5 -120 -33 -181
-123 -265 -87 -81 -230 -161 -479 -270 -27 -12 -47 -23 -44 -26 2 -3 65 18
139 46 201 76 335 109 446 109 201 0 298 -76 431 -337 33 -65 76 -157 97 -205
59 -138 57 -103 -2 46 -68 172 -113 346 -113 435 0 230 128 348 604 555 82 36
65 43 -20 8 -334 -138 -557 -172 -692 -106 -60 29 -176 137 -169 157 7 21 461
180 752 263 212 60 184 61 -105 2 -211 -42 -396 -87 -585 -142 -66 -19 -120
-34 -121 -33 -8 8 -98 199 -130 275 -21 50 -42 92 -46 92 -5 0 -1 -17 7 -37z"/>
<path d="M6680 6709 c-207 -7 -372 -24 -640 -65 -158 -25 -481 -91 -450 -93 8
-1 80 7 160 16 210 24 726 24 905 -1 299 -41 514 -99 700 -191 217 -107 357
-229 455 -395 30 -52 46 -68 75 -79 73 -26 92 -101 55 -221 -11 -37 -20 -94
-20 -131 0 -93 -25 -226 -64 -344 -18 -55 -41 -127 -51 -160 -18 -67 -52 -129
-94 -178 -16 -18 -60 -79 -99 -137 -71 -107 -208 -277 -290 -362 -26 -27 -41
-48 -34 -48 8 0 12 -17 12 -50 l0 -50 -63 0 c-79 0 -97 -16 -97 -83 l0 -47
-51 0 c-47 0 -55 -4 -106 -50 -232 -212 -641 -500 -1013 -712 -342 -195 -946
-481 -961 -456 -13 21 -22 116 -17 186 8 110 62 196 176 280 96 71 281 167
451 233 13 5 21 12 19 15 -3 3 -52 -13 -109 -34 -263 -100 -373 -126 -505
-120 -82 3 -108 9 -150 30 -63 33 -150 126 -204 218 -34 58 -140 281 -140 294
0 11 -42 97 -46 93 -2 -2 15 -55 40 -118 96 -251 134 -410 121 -512 -15 -115
-88 -218 -216 -303 -61 -40 -249 -135 -383 -193 -80 -34 -46 -35 40 0 386 154
598 170 740 54 46 -38 124 -134 124 -152 0 -24 -535 -209 -876 -303 -137 -38
-75 -33 147 11 225 44 679 159 770 194 13 5 29 -22 79 -137 75 -170 80 -181
87 -175 2 3 -2 18 -10 34 -29 57 -108 277 -103 289 3 7 20 15 38 19 18 4 112
36 208 70 821 294 1563 695 2151 1161 l99 79 -50 3 -50 3 0 185 0 185 58 -3
57 -3 3 -132 3 -133 52 0 c51 0 53 2 130 76 l77 75 0 59 0 60 59 0 59 0 58 63
c150 160 313 390 407 575 178 348 209 679 88 939 -153 327 -518 546 -1051 632
-256 41 -444 51 -760 40z"/>
<path d="M3741 5657 c-56 -108 -105 -197 -108 -197 -9 0 -477 -110 -493 -116
-8 -3 67 -34 168 -69 101 -35 186 -66 189 -68 3 -3 -52 -115 -122 -249 -70
-134 -132 -252 -138 -263 -11 -21 -32 -37 320 231 l238 181 155 -52 c85 -29
156 -52 157 -52 0 1 -18 64 -42 140 l-43 138 82 63 c44 34 160 122 256 196
141 107 168 131 140 125 -19 -4 -147 -34 -284 -66 -137 -33 -254 -59 -261 -59
-7 0 -26 45 -44 103 -18 56 -40 127 -50 157 l-18 55 -102 -198z"/>
<path d="M3916 5842 c-3 -5 10 -58 28 -118 31 -99 36 -109 57 -106 12 1 182
41 377 88 195 47 356 84 357 82 1 -2 -56 -48 -129 -103 l-131 -100 -86 -305
c-47 -168 -91 -315 -97 -327 -7 -12 -30 -35 -52 -53 -44 -35 -53 -72 -21 -90
27 -14 428 -13 470 1 38 13 50 48 27 81 -9 12 -16 40 -16 61 0 31 76 314 181
671 l21 68 36 -5 c44 -8 53 -17 83 -90 34 -85 58 -107 114 -107 35 0 52 6 70
24 28 28 85 201 85 258 0 70 18 68 -555 68 -485 0 -512 -1 -541 -19 -21 -13
-36 -33 -44 -58 -16 -50 -30 -64 -30 -31 0 33 -44 87 -87 104 -36 15 -109 19
-117 6z"/>
<path d="M7237 5839 c-92 -22 -189 -91 -229 -165 -33 -62 -52 -152 -43 -207
17 -102 81 -176 238 -273 125 -77 157 -108 157 -154 0 -46 -25 -70 -78 -77
-46 -6 -99 9 -137 38 -14 12 -53 56 -86 100 -66 87 -85 101 -137 101 -54 0
-75 -32 -127 -197 -48 -153 -49 -171 -5 -195 45 -24 83 -12 167 52 l52 40 30
-21 c130 -93 329 -113 498 -49 124 46 213 177 213 311 -1 123 -48 183 -247
314 -79 52 -147 102 -153 113 -31 59 5 120 72 120 59 0 106 -30 194 -124 84
-88 116 -106 163 -90 23 8 31 26 69 139 24 72 44 145 45 163 2 45 -22 65 -78
65 -36 0 -56 -7 -100 -38 l-55 -38 -68 31 c-37 16 -91 35 -120 41 -62 13 -181
13 -235 0z"/>
<path d="M2372 5828 c-21 -21 -13 -56 22 -93 19 -20 37 -48 40 -63 3 -15 28
-189 56 -387 28 -198 57 -379 66 -402 39 -106 136 -111 217 -11 51 64 287 411
287 423 -1 9 -34 23 -116 49 -17 5 -26 0 -42 -26 -26 -41 -26 -41 -46 152 -22
209 -21 228 9 272 30 44 31 59 7 81 -16 15 -49 17 -253 17 -170 0 -238 -3
-247 -12z"/>
<path d="M3042 5828 c-20 -20 -14 -53 14 -79 30 -27 54 -77 54 -111 0 -13 -40
-79 -89 -148 -49 -69 -88 -126 -87 -127 1 -1 459 106 560 131 l26 6 -6 94 c-7
90 -6 97 20 139 31 54 33 83 7 97 -29 15 -483 14 -499 -2z"/>
<path d="M5416 5824 c-20 -19 -20 -24 0 -104 l17 -65 -99 -350 -98 -350 -53
-52 c-29 -28 -53 -56 -53 -62 0 -5 10 -17 22 -25 17 -12 49 -16 130 -16 95 0
110 2 128 20 25 25 25 30 -1 80 l-21 40 63 221 c36 129 65 215 69 208 4 -8 40
-122 80 -254 40 -132 79 -253 87 -268 30 -60 106 -60 167 -1 19 19 130 152
246 295 115 144 210 258 210 253 0 -17 -114 -411 -125 -434 -7 -14 -31 -40
-54 -58 -46 -37 -54 -74 -22 -92 25 -13 440 -14 474 -1 36 14 40 41 17 93
l-20 46 95 338 c52 187 102 358 111 381 9 26 32 55 60 78 44 37 54 61 32 83
-18 18 -348 17 -391 -1 -41 -18 -60 -39 -301 -340 -110 -136 -202 -244 -206
-240 -4 4 -43 127 -86 273 -53 178 -87 273 -102 292 l-24 28 -168 0 c-140 0
-171 -3 -184 -16z"/>
<path d="M2187 5568 c-367 -367 -602 -739 -675 -1065 -10 -42 -9 -43 15 -43
21 0 30 -13 68 -92 l44 -93 0 93 1 92 55 0 55 0 0 -185 0 -185 -78 0 -79 0
-41 88 -40 87 -2 -90 c-1 -49 -1 -99 0 -110 2 -29 63 -167 102 -233 43 -73
185 -217 268 -270 414 -269 1045 -359 1860 -266 224 25 688 109 676 121 -3 3
-80 -3 -173 -13 -202 -22 -638 -25 -813 -5 -664 72 -1096 308 -1246 680 -16
39 -32 71 -36 71 -3 0 -9 -13 -13 -30 -7 -30 -7 -30 -78 -30 l-72 0 -62 185
-62 186 61 -3 61 -3 37 -104 37 -104 27 79 c15 43 36 133 46 199 33 209 108
402 238 608 l61 98 -31 217 c-29 206 -42 252 -70 252 -5 0 -69 -60 -141 -132z"/>
<path d="M3150 5267 c0 -53 45 -379 56 -405 l15 -36 17 29 c10 17 53 97 95
178 l77 148 -28 10 c-30 13 -224 79 -229 79 -2 0 -3 -2 -3 -3z"/>
<path d="M1057 4434 c-4 -4 -7 -18 -7 -31 0 -19 5 -23 30 -23 l30 0 0 -105 0
-105 -30 0 c-27 0 -30 -3 -30 -30 l0 -30 100 0 100 0 0 30 c0 27 -3 30 -30 30
l-30 0 0 105 0 105 31 0 c27 0 30 3 27 28 -3 27 -3 27 -93 30 -50 1 -94 0 -98
-4z"/>
<path d="M1420 4275 l0 -165 35 0 34 0 3 125 3 124 55 -122 56 -122 62 -3 62
-3 0 166 0 165 -35 0 -34 0 -3 -130 -3 -129 -59 129 -58 130 -59 0 -59 0 0
-165z"/>
<path d="M1897 4433 c-2 -5 20 -79 51 -165 l55 -158 53 0 52 0 52 155 c28 85
51 158 51 162 -1 5 -16 8 -33 8 l-33 0 -42 -120 c-23 -66 -43 -124 -45 -130
-3 -5 -17 30 -31 78 -15 47 -36 107 -47 132 -17 39 -23 45 -49 45 -16 0 -32
-3 -34 -7z"/>
<path d="M2380 4275 l0 -165 125 0 125 0 0 30 0 30 -90 0 -90 0 0 40 0 40 85
0 c84 0 85 0 85 25 0 25 -1 25 -85 25 l-85 0 0 40 0 40 90 0 90 0 0 30 0 30
-125 0 -125 0 0 -165z"/>
<path d="M2807 4434 c-4 -4 -7 -79 -7 -166 l0 -158 35 0 34 0 3 130 3 129 59
-129 58 -130 64 0 64 0 -2 163 -3 162 -35 0 -35 0 -5 -122 -5 -122 -55 122
-56 122 -55 3 c-30 2 -58 0 -62 -4z"/>
<path d="M3277 4433 c-4 -3 -7 -17 -7 -30 0 -21 4 -23 55 -23 l55 0 0 -135 0
-135 40 0 40 0 0 135 0 135 50 0 c49 0 50 1 50 30 l0 30 -138 0 c-76 0 -142
-3 -145 -7z"/>
<path d="M3810 4429 c-60 -24 -91 -78 -91 -155 0 -110 58 -169 166 -169 71 1
118 22 145 68 54 89 25 208 -62 253 -31 16 -121 18 -158 3z m141 -68 c18 -14
23 -31 27 -78 4 -52 1 -63 -21 -89 -21 -24 -33 -29 -70 -29 -57 0 -84 23 -93
80 -7 50 9 110 34 125 29 16 98 12 123 -9z"/>
<path d="M4227 4433 c-4 -3 -7 -78 -7 -165 l0 -158 40 0 40 0 0 66 0 67 45 -5
c62 -7 75 -21 75 -79 l0 -49 40 0 40 0 -6 58 c-5 45 -12 62 -33 79 -20 18 -22
23 -9 23 24 0 48 39 48 76 0 43 -27 73 -75 84 -46 11 -188 13 -198 3z m181
-65 c17 -17 15 -65 -4 -72 -9 -3 -36 -6 -60 -6 l-44 0 0 45 0 45 48 0 c26 0
53 -5 60 -12z"/>
<path d="M4650 4437 c0 -2 27 -54 60 -115 51 -94 60 -118 60 -161 l0 -51 40 0
40 0 0 54 c0 45 8 67 55 154 30 56 55 106 55 112 0 5 -16 10 -35 10 -35 0 -37
-2 -73 -80 -20 -43 -40 -79 -43 -80 -3 0 -22 36 -42 80 l-36 80 -40 0 c-23 0
-41 -2 -41 -3z"/>
<path d="M5410 4288 c-29 -84 -55 -159 -58 -165 -3 -9 7 -13 32 -13 31 0 37 4
51 35 l14 36 73 -3 c72 -3 72 -3 82 -35 8 -30 13 -33 47 -33 l38 0 -54 156
c-30 85 -57 159 -60 165 -4 5 -30 9 -59 9 l-53 0 -53 -152z m134 25 c10 -32
21 -64 23 -70 4 -9 -9 -13 -46 -13 -28 0 -51 4 -51 8 0 18 42 132 49 132 4 0
15 -26 25 -57z"/>
<path d="M5850 4275 l0 -165 35 0 34 0 3 125 3 124 55 -122 56 -122 62 -3 62
-3 0 166 0 165 -35 0 -34 0 -3 -130 -3 -129 -59 129 -58 130 -59 0 -59 0 0
-165z"/>
<path d="M6338 4434 c-5 -4 -8 -79 -8 -166 l0 -158 95 0 c59 0 108 5 129 14
72 30 106 132 72 221 -26 67 -64 86 -184 92 -53 3 -100 2 -104 -3z m171 -65
c40 -14 51 -35 51 -99 0 -71 -29 -100 -100 -100 l-50 0 0 105 0 105 34 0 c18
0 47 -5 65 -11z"/>
<path d="M7047 4433 c-4 -3 -7 -78 -7 -165 l0 -158 40 0 40 0 0 65 0 65 80 0
80 0 0 30 0 30 -80 0 -80 0 0 40 0 40 85 0 85 0 0 30 0 30 -118 0 c-65 0 -122
-3 -125 -7z"/>
<path d="M7460 4275 l0 -165 115 0 115 0 0 30 0 30 -80 0 -80 0 0 135 0 135
-35 0 -35 0 0 -165z"/>
<path d="M7840 4275 l0 -165 131 0 130 0 -3 28 -3 27 -92 3 -93 3 0 39 0 40
85 0 c84 0 85 0 85 25 0 24 -2 24 -82 27 l-83 3 -3 38 -3 37 90 0 91 0 0 30 0
30 -125 0 -125 0 0 -165z"/>
<path d="M8267 4434 c-4 -4 -7 -79 -7 -166 l0 -158 130 0 130 0 0 30 0 30 -90
0 -90 0 0 40 0 40 80 0 c79 0 80 0 80 25 0 25 -1 25 -80 25 l-80 0 0 40 0 40
91 0 90 0 -3 28 -3 27 -121 3 c-66 1 -123 -1 -127 -4z"/>
<path d="M8677 4433 c-4 -3 -7 -17 -7 -30 0 -21 4 -23 55 -23 l55 0 0 -135 0
-135 40 0 40 0 0 135 0 135 50 0 c49 0 50 1 50 30 l0 30 -138 0 c-76 0 -142
-3 -145 -7z"/>
<path d="M4438 3423 c7 -3 16 -2 19 1 4 3 -2 6 -13 5 -11 0 -14 -3 -6 -6z"/>
</g>
</svg>
